<svg xmlns="http://www.w3.org/2000/svg" width="222.783" height="323.556" viewBox="0 0 167.087 242.667">
  <g stroke="#000">
    <path d="M166.837 235.548c0 3.777-3.087 6.87-6.87 6.87H7.11c-3.774 0-6.86-3.093-6.86-6.87V7.12C.25 3.343 3.336.25 7.11.25h152.856c3.784 0 6.87 3.093 6.87 6.87v228.428z" fill="#FFF" stroke-width=".5"/>
  </g>
  <text style="line-height:125%" x="7.846" y="26.413" font-size="32" letter-spacing="0" word-spacing="0" fill="#df0000" font-family="Bitstream Vera Sans">
    <tspan x="7.846" y="26.413" style="-inkscape-font-specification:Arial" font-family="Arial">6</tspan>
  </text>
  <text style="line-height:125%" x="-159.488" y="-216.715" transform="scale(-1)" font-size="32" letter-spacing="0" word-spacing="0" fill="#df0000" font-family="Bitstream Vera Sans">
    <tspan x="-159.488" y="-216.715" style="-inkscape-font-specification:Arial" font-family="Arial">6</tspan>
  </text>
  <path d="M21.758 37.257c-3.126-4.23-4.79-8.528-4.79-8.528s-1.663 4.297-4.79 8.527c-3.128 4.23-7.025 6.98-7.025 6.98s3.897 2.748 7.025 6.98c3.127 4.228 4.79 8.527 4.79 8.527s1.664-4.3 4.79-8.527c3.128-4.232 7.025-6.98 7.025-6.98s-3.897-2.75-7.025-6.98zM155.41 191.525c-3.126-4.23-4.79-8.53-4.79-8.53s-1.663 4.3-4.79 8.53c-3.127 4.228-7.024 6.978-7.024 6.978s3.897 2.75 7.025 6.98c3.127 4.23 4.79 8.528 4.79 8.528s1.664-4.298 4.79-8.526c3.13-4.232 7.026-6.98 7.026-6.98s-3.897-2.75-7.025-6.98zM118.523 179.79c-5.48-7.41-8.394-14.945-8.394-14.945s-2.917 7.534-8.396 14.946c-5.482 7.412-12.312 12.232-12.312 12.232s6.83 4.818 12.312 12.233c5.48 7.41 8.395 14.944 8.395 14.944s2.914-7.535 8.393-14.945c5.482-7.415 12.312-12.233 12.312-12.233s-6.83-4.82-12.312-12.23zM118.523 38.59c-5.48-7.414-8.394-14.948-8.394-14.948s-2.917 7.534-8.396 14.947C96.252 46 89.422 50.82 89.422 50.82s6.83 4.817 12.312 12.233c5.48 7.41 8.395 14.944 8.395 14.944s2.914-7.534 8.393-14.944c5.482-7.416 12.312-12.233 12.312-12.233s-6.83-4.82-12.312-12.23zM118.523 108.29c-5.48-7.413-8.394-14.947-8.394-14.947s-2.917 7.534-8.396 14.947c-5.482 7.41-12.312 12.23-12.312 12.23s6.83 4.818 12.312 12.233c5.48 7.41 8.395 14.944 8.395 14.944s2.914-7.533 8.393-14.944c5.482-7.415 12.312-12.233 12.312-12.233s-6.83-4.82-12.312-12.23zM64.408 179.91c-5.48-7.413-8.395-14.947-8.395-14.947s-2.915 7.534-8.394 14.947c-5.483 7.41-12.313 12.23-12.313 12.23s6.83 4.818 12.312 12.233c5.478 7.41 8.393 14.944 8.393 14.944s2.916-7.534 8.395-14.944c5.482-7.415 12.312-12.233 12.312-12.233s-6.83-4.82-12.312-12.23zM64.408 38.707c-5.48-7.413-8.395-14.946-8.395-14.946s-2.915 7.534-8.394 14.947c-5.483 7.41-12.313 12.23-12.313 12.23s6.83 4.818 12.312 12.234c5.478 7.41 8.393 14.945 8.393 14.945s2.916-7.534 8.395-14.944C69.89 55.756 76.72 50.94 76.72 50.94s-6.83-4.82-12.312-12.23zM64.408 108.408c-5.48-7.413-8.395-14.947-8.395-14.947s-2.915 7.535-8.394 14.948c-5.483 7.41-12.313 12.23-12.313 12.23s6.83 4.818 12.312 12.234c5.478 7.41 8.393 14.944 8.393 14.944s2.916-7.534 8.395-14.944c5.482-7.416 12.312-12.234 12.312-12.234s-6.83-4.82-12.312-12.23z" fill="#df0000"/>
</svg>