<svg xmlns="http://www.w3.org/2000/svg" width="222.783" height="323.556" viewBox="0 0 167.087 242.667">
  <g stroke="#000">
    <path d="M166.837 235.548c0 3.777-3.087 6.87-6.87 6.87H7.11c-3.774 0-6.86-3.093-6.86-6.87V7.12C.25 3.343 3.336.25 7.11.25h152.856c3.784 0 6.87 3.093 6.87 6.87v228.428z" fill="#FFF" stroke-width=".5"/>
  </g>
  <text style="line-height:125%" x="8.547" y="28.013" font-size="32" letter-spacing="0" word-spacing="0" font-family="Bitstream Vera Sans">
    <tspan x="8.547" y="28.013" style="-inkscape-font-specification:Arial" font-family="Arial">8</tspan>
  </text>
  <path d="M28.98 49.346c-.364-5.596-11.686-16.13-12.05-18.763C16.563 33.216 5.24 43.75 4.876 49.346c-.255 3.956 2.557 5.596 5.114 5.596 2.77-.03 5.056-3.863 5.844-4.608.365.987-2.418 9.216-3.287 9.216h8.766c-.87 0-3.652-8.23-3.287-9.216.69.684 2.71 4.493 5.844 4.608 2.556-.002 5.366-1.64 5.11-5.596zM75.77 52.08c-.64-9.824-20.518-28.317-21.16-32.942-.64 4.623-20.518 23.115-21.16 32.943-.447 6.946 4.49 9.825 8.98 9.825 4.86-.052 8.875-6.782 10.258-8.09.64 1.733-4.246 16.18-5.772 16.18h15.392c-1.526 0-6.413-14.447-5.772-16.18 1.21 1.2 4.76 7.89 10.26 8.09 4.488-.002 9.423-2.88 8.975-9.824z"/>
  <text style="line-height:125%" x="-158.978" y="-215.124" transform="scale(-1)" font-size="32" letter-spacing="0" word-spacing="0" font-family="Bitstream Vera Sans">
    <tspan x="-158.978" y="-215.124" style="-inkscape-font-specification:Arial" font-family="Arial">8</tspan>
  </text>
  <path d="M138.173 193.764c.365 5.596 11.687 16.128 12.052 18.763.365-2.633 11.687-13.166 12.052-18.763.255-3.956-2.557-5.596-5.114-5.596-2.768.03-5.055 3.863-5.843 4.608-.365-.987 2.42-9.216 3.288-9.216h-8.767c.87 0 3.653 8.23 3.288 9.216-.69-.684-2.71-4.493-5.844-4.608-2.555 0-5.366 1.64-5.11 5.596zM33.496 191.057c.64 9.825 20.52 28.317 21.16 32.942.64-4.624 20.52-23.116 21.16-32.943.448-6.946-4.49-9.825-8.98-9.825-4.86.052-8.874 6.782-10.257 8.09-.642-1.733 4.245-16.18 5.77-16.18H46.96c1.525 0 6.412 14.447 5.77 16.18-1.21-1.2-4.76-7.89-10.26-8.09-4.487.002-9.422 2.88-8.974 9.825zM75.855 126.582c-.64-9.825-20.52-28.317-21.16-32.943-.64 4.622-20.52 23.115-21.16 32.942-.448 6.945 4.49 9.825 8.978 9.825 4.86-.052 8.876-6.783 10.26-8.09.64 1.733-4.247 16.18-5.773 16.18h15.392c-1.526 0-6.413-14.447-5.772-16.18 1.21 1.2 4.76 7.888 10.26 8.09 4.488-.003 9.423-2.88 8.975-9.825zM133.658 51.88c-.64-9.823-20.52-28.316-21.16-32.94-.64 4.622-20.52 23.114-21.16 32.94-.448 6.947 4.49 9.826 8.98 9.826 4.86-.052 8.874-6.782 10.257-8.09.64 1.733-4.246 16.18-5.772 16.18h15.392c-1.526 0-6.413-14.447-5.772-16.18 1.21 1.2 4.76 7.89 10.26 8.09 4.488-.002 9.423-2.88 8.975-9.825zM91.383 190.858c.64 9.825 20.52 28.317 21.16 32.942.64-4.623 20.52-23.115 21.16-32.942.448-6.946-4.49-9.825-8.98-9.825-4.86.052-8.874 6.782-10.257 8.09-.64-1.733 4.246-16.18 5.77-16.18h-15.39c1.526 0 6.412 14.447 5.77 16.18-1.21-1.2-4.76-7.89-10.26-8.09-4.486.002-9.42 2.88-8.973 9.825zM133.742 126.383c-.64-9.825-20.52-28.317-21.16-32.943-.64 4.623-20.52 23.115-21.16 32.943-.448 6.945 4.49 9.825 8.978 9.825 4.86-.053 8.876-6.783 10.26-8.09.64 1.733-4.247 16.18-5.773 16.18h15.392c-1.527 0-6.414-14.447-5.773-16.18 1.21 1.2 4.76 7.888 10.26 8.09 4.488-.003 9.423-2.88 8.975-9.825zM104.655 91.453c-.64-9.825-20.52-28.318-21.16-32.943-.64 4.623-20.52 23.115-21.16 32.943-.448 6.945 4.49 9.824 8.978 9.824 4.86-.052 8.876-6.782 10.26-8.09.64 1.733-4.247 16.18-5.773 16.18h15.392c-1.526 0-6.413-14.447-5.772-16.18 1.21 1.2 4.76 7.89 10.26 8.09 4.488-.002 9.423-2.88 8.975-9.824zM62.006 154.29c.64 9.824 20.52 28.316 21.16 32.94.64-4.622 20.52-23.114 21.16-32.94.448-6.947-4.49-9.826-8.98-9.826-4.86.052-8.874 6.782-10.257 8.09-.642-1.733 4.245-16.18 5.77-16.18H75.47c1.525 0 6.41 14.447 5.77 16.18-1.21-1.2-4.76-7.89-10.26-8.09-4.487.002-9.422 2.88-8.974 9.825z"/>
</svg>