<svg xmlns="http://www.w3.org/2000/svg" xmlns:xlink="http://www.w3.org/1999/xlink" width="222.783" height="323.556" viewBox="0 0 167.087 242.667">
  <g stroke="#000">
    <path d="M166.837 235.548c0 3.777-3.087 6.87-6.87 6.87H7.11c-3.774 0-6.86-3.093-6.86-6.87V7.12C.25 3.343 3.336.25 7.11.25h152.856c3.784 0 6.87 3.093 6.87 6.87v228.428z" fill="#FFF" stroke-width=".5"/>
  </g>
  <text style="line-height:125%" x="6.246" y="28.013" font-size="32" letter-spacing="0" word-spacing="0" fill="#df0000" font-family="Bitstream Vera Sans">
    <tspan x="6.246" y="28.013" style="-inkscape-font-specification:Arial" font-family="Arial">A</tspan>
  </text>
  <path d="M3.676-9C.433-9 0-5.523 0-5.523S-.433-9-3.676-9C-5.946-9-8-7.44-8-4.5-8-.614-1.42 3.294 0 9 1.352 3.3 8-.614 8-4.5 8-7.44 5.946-9 3.676-9z" fill="url(#h)" transform="matrix(6.8256 0 0 6.3881 83.142 122.273)"/>
  <path transform="matrix(.2922 0 0 .3026 -4.335 -71.84)" d="M117.3 604.266s-8.066-94.95 22.858-122.857c34.76-31.37 140-11.43 140-11.43s-71.54 24.838-100 48.572c-27.21 22.692-62.857 85.714-62.857 85.714z" fill="url(#i)" filter="url(#j)"/>
  <path transform="matrix(.22705 .0665 -.06483 .27594 94.814 -72.097)" d="M117.3 604.266s-8.066-94.95 22.858-122.857c34.76-31.37 140-11.43 140-11.43s-63.093 37.07-91.552 60.805c-27.21 22.692-71.305 73.48-71.305 73.48z" fill="url(#k)" filter="url(#l)"/>
  <path d="M23.332 32.282c-5.43 0-6.154 5.45-6.154 5.45s-.725-5.45-6.155-5.45c-3.8 0-7.24 2.443-7.24 7.052 0 6.09 11.016 12.213 13.395 21.154 2.263-8.934 13.394-15.065 13.394-21.154 0-4.61-3.44-7.052-7.24-7.052z" fill="#df0000"/>
  <text style="line-height:125%" x="-161.088" y="-213.515" transform="scale(-1)" font-size="32" letter-spacing="0" word-spacing="0" fill="#df0000" font-family="Bitstream Vera Sans">
    <tspan x="-161.088" y="-213.515" style="-inkscape-font-specification:Arial" font-family="Arial">A</tspan>
  </text>
  <g fill="#df0000">
    <path d="M144 209.246c5.43 0 6.156-5.448 6.156-5.448s.725 5.448 6.155 5.448c3.8 0 7.24-2.443 7.24-7.05 0-6.09-11.015-12.214-13.394-21.156-2.264 8.934-13.394 15.065-13.394 21.155 0 4.608 3.44 7.05 7.24 7.05z"/>
  </g>
</svg>