<svg xmlns="http://www.w3.org/2000/svg" width="222.783" height="323.556" viewBox="0 0 167.087 242.667">
  <g stroke="#000">
    <path d="M166.837 235.548c0 3.777-3.087 6.87-6.87 6.87H7.11c-3.774 0-6.86-3.093-6.86-6.87V7.12C.25 3.343 3.336.25 7.11.25h152.856c3.784 0 6.87 3.093 6.87 6.87v228.428z" fill="#FFF" stroke-width=".5"/>
  </g>
  <text style="line-height:125%" x="8.775" y="28.013" font-size="32" letter-spacing="0" word-spacing="0" fill="#df0000" font-family="Bitstream Vera Sans">
    <tspan x="8.775" y="28.013" style="-inkscape-font-specification:Arial" font-family="Arial">4</tspan>
  </text>
  <path d="M23.332 32.282c-5.43 0-6.154 5.45-6.154 5.45s-.725-5.45-6.155-5.45c-3.8 0-7.24 2.443-7.24 7.052 0 6.09 11.016 12.213 13.395 21.154 2.263-8.934 13.394-15.065 13.394-21.154 0-4.61-3.44-7.052-7.24-7.052z" fill="#df0000"/>
  <text style="line-height:125%" x="-158.818" y="-213.515" transform="scale(-1)" font-size="32" letter-spacing="0" word-spacing="0" fill="#df0000" font-family="Bitstream Vera Sans">
    <tspan x="-158.818" y="-213.515" style="-inkscape-font-specification:Arial" font-family="Arial">4</tspan>
  </text>
  <path d="M144 209.246c5.43 0 6.156-5.448 6.156-5.448s.725 5.448 6.155 5.448c3.8 0 7.24-2.443 7.24-7.05 0-6.09-11.015-12.214-13.394-21.156-2.264 8.934-13.394 15.065-13.394 21.155 0 4.608 3.44 7.05 7.24 7.05zM66.328 41.452c-9.012 0-10.216 9.043-10.216 9.043s-1.203-9.043-10.215-9.043c-6.31 0-12.017 4.055-12.017 11.704 0 10.107 18.284 20.27 22.232 35.112 3.758-14.83 22.232-25.005 22.232-35.112 0-7.65-5.708-11.704-12.016-11.704zM45.897 200.67c9.012 0 10.215-9.043 10.215-9.043s1.204 9.043 10.216 9.043c6.308 0 12.016-4.055 12.016-11.704 0-10.107-18.283-20.27-22.232-35.112-3.757 14.83-22.232 25.005-22.232 35.112 0 7.65 5.708 11.704 12.017 11.704zM120.92 41.724c-9.012 0-10.215 9.044-10.215 9.044s-1.204-9.044-10.216-9.044c-6.31 0-12.018 4.055-12.018 11.704 0 10.107 18.284 20.27 22.233 35.112 3.757-14.828 22.232-25.005 22.232-35.112 0-7.65-5.708-11.704-12.017-11.704zM100.49 200.943c9.01 0 10.215-9.044 10.215-9.044s1.203 9.043 10.215 9.043c6.31 0 12.017-4.055 12.017-11.704 0-10.108-18.284-20.272-22.232-35.113-3.758 14.828-22.233 25.005-22.233 35.112 0 7.648 5.71 11.703 12.017 11.703z" fill="#df0000"/>
</svg>