<svg xmlns="http://www.w3.org/2000/svg" xmlns:xlink="http://www.w3.org/1999/xlink" width="222.783" height="323.556" viewBox="0 0 167.087 242.667">
  <g stroke="#000">
    <path d="M166.837 235.548c0 3.777-3.087 6.87-6.87 6.87H7.11c-3.774 0-6.86-3.093-6.86-6.87V7.12C.25 3.343 3.336.25 7.11.25h152.856c3.784 0 6.87 3.093 6.87 6.87v228.428z" fill="#FFF" stroke-width=".5"/>
  </g>
  <text style="line-height:125%" x="6.246" y="28.013" font-size="32" letter-spacing="0" word-spacing="0" fill="#df0000" font-family="Bitstream Vera Sans">
    <tspan x="6.246" y="28.013" style="-inkscape-font-specification:Arial" font-family="Arial">A</tspan>
  </text>
  <text style="line-height:125%" x="-161.088" y="-213.515" transform="scale(-1)" font-size="32" letter-spacing="0" word-spacing="0" fill="#df0000" font-family="Bitstream Vera Sans">
    <tspan x="-161.088" y="-213.515" style="-inkscape-font-specification:Arial" font-family="Arial">A</tspan>
  </text>
  <path d="M3.243-4.725C1.126-7.59 0-10.5 0-10.5s-1.126 2.91-3.243 5.775C-5.36-1.862-8 0-8 0s2.64 1.86 4.757 4.726C-1.126 7.59 0 10.5 0 10.5s1.126-2.91 3.243-5.774C5.36 1.86 8 0 8 0S5.36-1.862 3.243-4.725z" fill="url(#h)" transform="translate(82.284 116.888) scale(5.95137)"/>
  <path transform="matrix(-.2491 .04028 -.04172 -.25798 131.78 225.09)" d="M117.3 604.266s-8.066-94.95 22.858-122.857c34.76-31.37 140-11.43 140-11.43s-71.54 24.838-100 48.572c-27.21 22.692-62.857 85.714-62.857 85.714z" fill="url(#i)" filter="url(#j)"/>
  <path d="M21.758 37.257c-3.126-4.23-4.79-8.528-4.79-8.528s-1.663 4.297-4.79 8.527c-3.128 4.23-7.025 6.98-7.025 6.98s3.897 2.748 7.025 6.98c3.127 4.228 4.79 8.527 4.79 8.527s1.664-4.3 4.79-8.527c3.128-4.232 7.025-6.98 7.025-6.98s-3.897-2.75-7.025-6.98z" fill="#df0000"/>
  <g>
    <path d="M155.41 191.525c-3.126-4.23-4.79-8.53-4.79-8.53s-1.663 4.3-4.79 8.53c-3.127 4.228-7.024 6.978-7.024 6.978s3.897 2.75 7.025 6.98c3.127 4.23 4.79 8.528 4.79 8.528s1.664-4.298 4.79-8.526c3.13-4.232 7.026-6.98 7.026-6.98s-3.897-2.75-7.025-6.98z" fill="#df0000"/>
  </g>
</svg>