<svg xmlns="http://www.w3.org/2000/svg" width="222.783" height="323.556" viewBox="0 0 167.087 242.667">
  <g stroke="#000">
    <path d="M166.837 235.548c0 3.777-3.087 6.87-6.87 6.87H7.11c-3.774 0-6.86-3.093-6.86-6.87V7.12C.25 3.343 3.336.25 7.11.25h152.856c3.784 0 6.87 3.093 6.87 6.87v228.428z" fill="#FFF" stroke-width=".5"/>
  </g>
  <text style="line-height:125%" x="6.246" y="28.013" font-size="32" letter-spacing="0" word-spacing="0" font-family="Bitstream Vera Sans">
    <tspan x="6.246" y="28.013" style="-inkscape-font-specification:Arial" font-family="Arial">A</tspan>
  </text>
  <path d="M28.98 49.346c-.364-5.596-11.686-16.128-12.05-18.763C16.563 33.216 5.24 43.75 4.876 49.346c-.255 3.956 2.557 5.596 5.114 5.596 2.77-.03 5.056-3.863 5.844-4.608.365.987-2.418 9.216-3.287 9.216h8.766c-.87 0-3.652-8.23-3.287-9.216.69.684 2.71 4.493 5.844 4.608 2.556 0 5.366-1.64 5.11-5.596z"/>
  <text style="line-height:125%" x="-160.908" y="-215.097" transform="scale(-1)" font-size="32" letter-spacing="0" word-spacing="0" font-family="Bitstream Vera Sans">
    <tspan x="-160.908" y="-215.097" style="-inkscape-font-specification:Arial" font-family="Arial">A</tspan>
  </text>
  <path d="M138.173 193.764c.365 5.596 11.687 16.128 12.052 18.763.365-2.633 11.687-13.166 12.052-18.763.255-3.956-2.557-5.596-5.114-5.596-2.77.03-5.055 3.863-5.843 4.608-.365-.987 2.418-9.216 3.287-9.216h-8.766c.87 0 3.653 8.23 3.288 9.216-.69-.684-2.71-4.493-5.844-4.608-2.556 0-5.366 1.64-5.11 5.596zM79.5 183.52c-7.826-.003-14.295-.07-14.376-.15-.08-.078.557-.684 1.417-1.346 3.13-2.41 5.828-6.427 8.94-13.312 2.14-4.732 2.827-6.63 3.537-9.76 1.137-5.01 1.1-8.438-.106-9.884l-.577-.692-2.33 2.447c-2.59 2.722-5.96 5.04-9.722 6.684-4.118 1.8-6.784 2.378-11.308 2.445-3.57.054-4.337-.04-6.887-.833-6.438-2.005-11.655-6.596-14.694-12.93-1.83-3.816-2.297-5.93-2.386-10.787-.07-3.93.014-4.693.907-8.117 1.397-5.347 4.256-11.962 7.166-16.58 3.537-5.61 11.693-16.026 20.313-25.94 7.09-8.157 9.95-11.79 14.897-18.945 5.264-7.61 7.354-11.26 8.35-14.58.4-1.33.798-2.416.887-2.416.088 0 .604 1.32 1.146 2.932 2.155 6.414 7.733 15.195 15.82 24.905 1.44 1.73 5.632 6.653 9.316 10.943 12.066 14.047 17.16 21.12 21.66 30.07 3.485 6.934 4.86 12.277 4.695 18.25-.21 7.634-2.654 13.027-8.32 18.356-2.335 2.194-5.915 4.273-8.762 5.086-.88.25-3.262.574-5.293.718-6.082.43-10.616-.762-16.935-4.45-2.963-1.73-6.312-4.525-7.237-6.04-.748-1.224-1.322-1.146-1.883.256-.944 2.36-1.095 4.483-.52 7.315 1.79 8.834 7.52 20.15 12.44 24.57l1.99 1.785-3.957.004c-2.175.003-10.357 0-18.183-.004zm12.99-4.67c-1.542-1.234-4.883-5.993-6.537-9.313-1.72-3.453-2.247-5.99-1.76-8.486l.526-2.7c.104-.54-.12-1.38-.63-2.343l-.792-1.503-.887 1.69-.887 1.69.586 1.558c.864 2.297.657 5.634-.506 8.147-1.47 3.176-6.396 10.49-7.665 11.38-1.487 1.042-.827 1.008 2.004-.104 2.04-.8 2.69-.897 6.292-.93 4.137-.04 7.912.496 9.56 1.358 1.53.8 1.93.544.694-.445zm-5.933-2.067c-1.91-.418-6.728-.297-8.513.213-.79.226-.79.216.175-.875 1.326-1.5 2.165-3.092 3.737-7.09 1.208-3.073 1.364-3.32 1.65-2.595.17.44.858 2.284 1.525 4.1 1.167 3.178 1.893 4.506 3.298 6.032.737.8.78.795-1.873.216zm31.807-21.74c4.476-1.706 8.628-5.697 10.81-10.39 1.373-2.955 1.86-4.738 2.277-8.32.584-5.025-.264-9.534-2.996-15.93-3.61-8.456-8.685-15.408-19.29-26.43-16.125-16.756-20.12-21.97-23.914-31.208-.65-1.58-1.288-3.488-1.42-4.237-.13-.75-.334-1.357-.45-1.35-.118.006-.583 1.223-1.034 2.703-2.715 8.907-8.835 17.49-23.073 32.357-9.924 10.364-11.468 12.203-15.537 18.498-5.315 8.223-7.765 14.84-8.04 21.72-.432 10.845 5.25 20.116 13.9 22.674 5.29 1.563 12.55.294 18.272-3.194 4.596-2.803 6.936-5.115 8.705-8.602.57-1.12 1.086-2.1 1.15-2.18.063-.076.64.35 1.28.946 1.123 1.046 3.09 4.386 3.905 6.63l.392 1.08 1.055-2.52c.7-1.676 1.632-3.165 2.773-4.434l1.717-1.91 1.148 2.284c2.62 5.214 9.928 10.37 17.373 12.257 3.182.807 8.258.602 10.998-.443zm-8.513-.247c-2.71-.322-4.41-.842-7.238-2.21-7.433-3.6-11.353-7.602-12.114-12.366-.134-.838-.394-1.52-.578-1.518-1.09.016-4.593 4.072-5.8 6.717-.274.598-.623 1.09-.776 1.093-.153.003-.598-.606-.99-1.35-1.133-2.16-3.245-4.933-4.412-5.796-1.178-.87-1.173-.873-1.732.986-.598 1.988-1.823 4.386-3.017 5.903-1.22 1.548-6.375 5.222-9.02 6.428-5.947 2.71-12.95 2.738-17.657.07-4.032-2.284-7.05-6.516-8.552-11.992-2.123-7.74-.942-15.024 3.85-23.744 4.412-8.032 7.137-11.648 15.26-20.254 13.47-14.267 20.245-23.052 24.167-31.34 1.63-3.443 1.993-3.267 1.07.52-1.573 6.474-12.14 22.15-28.278 41.96-4.35 5.337-9.035 13.185-10.472 17.54-1.974 5.98-2.26 10.795-.93 15.72 1.886 7 5.787 11.042 11.493 11.91 8.277 1.257 15.68-4.74 20.583-16.673l1.183-2.88 1.622 2.43c1.76 2.637 5.34 6.393 6.08 6.38.57-.007 4.758-4.506 6.136-6.59.558-.843 1.094-1.538 1.19-1.544.098-.006.38.528.626 1.188.246.66 1.024 2.33 1.73 3.71 4.994 9.794 11.616 14.597 19.274 13.982 3.406-.274 5.868-1.723 8.248-4.852 2.58-3.39 3.8-6.563 4.214-10.956.46-4.878-.77-10.26-3.792-16.58-1.693-3.543-6.704-10.765-10.682-15.396-7.778-9.053-20.65-27.077-24.186-33.866-.917-1.76-2.1-5.62-2.39-7.797-.233-1.76.125-1.402 1.067 1.067 1.536 4.022 5.328 10.037 9.525 15.108 2.63 3.18 5.534 6.38 12.82 14.143 4.697 5.003 7.672 8.44 11.042 12.763 5.76 7.39 10.497 17.184 11.636 24.066 1.11 6.718-1.573 15.124-6.25 19.565-1.823 1.734-5.446 3.617-8.13 4.228-2.286.52-3.09.55-5.82.228zm-2.84-3.604c-2.727-.992-5.002-2.462-6.81-4.402-3.218-3.45-6.566-9.253-8.096-14.034-.8-2.502-1.082-2.866-1.4-1.81-.653 2.168-6.35 10.412-7.202 10.42-.605.01-3.242-3.408-5.753-7.454-1.303-2.096-2.41-3.852-2.46-3.902-.052-.05-.388 1.078-.747 2.505C72.9 139.04 68 146.87 63.723 149.8c-6.033 4.137-14.974 2.315-17.7-3.607-.726-1.578-1.346-4.888-.917-4.894.147-.004.27.142.272.323.01.714 1.842 2.958 3.09 3.785 4.893 3.247 9.613 2.718 15.056-1.686 4.254-3.443 8.195-11.212 6.686-13.183-.39-.51-.425-.432-.3.692.184 1.67-.544 2.783-2.487 3.804-.84.442-1.666 1.06-1.836 1.374-.283.523-.386.5-1.245-.3-.515-.478-1.276-.864-1.69-.858-.744.01-.747.022-.146.666.73.782.853 3.335.253 5.204-.484 1.505-2.945 4.158-4.634 4.995-2.833 1.404-7.34.47-9.633-1.992-3.286-3.53-1.997-9.456 2.597-11.936 2.206-1.192 5.337-.743 6.996 1.002.777.818.782.86.27 1.976-.715 1.56-1.22 1.66-2.433.484-.95-.922-1.17-.99-2.642-.827-2.783.31-4.506 2.847-3.732 5.497.444 1.52 2.77 3.6 4.323 3.866 4.076.702 7.885-3.796 6.854-8.094-.32-1.34-.267-1.8.462-3.985 1.6-4.795.705-12.205-1.846-15.288-.505-.61-.513-.6-.198.24.34.912.18 1.85-.318 1.857-.157.002-.29-.15-.29-.334-.004-.185-.61-.596-1.344-.912-1.677-.72-2.97-.34-3.68 1.084-.463.933-.458.97.102.73 1.33-.568 1.8-.576 3.006-.054 2.34 1.014 3.75 3.86 3.792 7.656.025 2.297-.477 4.99-.932 4.996-.093.002-.718-.42-1.39-.934-1.614-1.24-2.63-1.58-4.634-1.54-3.344.063-6.596 2.54-8.37 6.375-.572 1.24-1.04 2.622-1.04 3.07.003.773-.015.78-.386.174-.538-.878-.502-5.9.062-8.677 1.417-6.985 6.993-17.112 13.367-24.278l1.715-1.928.232 3.024c.18 2.372.416 3.373 1.085 4.633 1.04 1.96 3.308 4.05 4.95 4.566 1.798.563 4.642.225 5.848-.695 1.257-.96 2.147-2.936 1.84-4.085-.16-.604-.11-.815.17-.726.683.216 1.617 1.668 1.94 3.014.33 1.37.024 4.42-.557 5.546-.58 1.125-2.45 2.35-4.375 2.865-2.935.784-3.535 1.123-4.07 2.298-.628 1.373-.324 3.22.608 3.7.627.324.63.31.117-.403-.683-.945-.676-1.102.09-1.892.546-.562 1.068-.66 3.766-.706 3.96-.068 5.432-.676 6.57-2.713 1.248-2.23 1.532-3.84 1.08-6.135-.712-3.62-2.622-6.613-4.942-7.746-1.933-.944-3.486-.964-4.6-.06-1.01.82-1.113 1.456-.15.92.98-.542 2.14.064 2.734 1.43.418.96.426 1.266.055 2.193-1.23 3.07-4.825 3.36-8 .648-2.03-1.733-2.93-3.62-2.953-6.195-.033-3.586 1.77-6.553 4.923-8.107 1.255-.62 4.043-.694 5.635-.15 4.443 1.513 8.515 7.15 10.008 13.854.553 2.483 1.95 13.203 1.978 15.173.012.802-.24 1.81-.606 2.432-.795 1.348-.782 2.22.04 2.717.358.215.655.718.66 1.117.007.43.207.723.493.72.288-.005.48-.303.473-.734-.006-.4.275-.91.625-1.137.773-.5.798-1.387.076-2.732-.44-.823-.51-1.574-.38-4.076.21-4.004 1.138-10.505 1.927-13.482 1.67-6.302 5.232-11.65 8.92-13.39 3.004-1.42 7.02-.474 9.386 2.21 1.506 1.705 1.914 3.014 1.815 5.806-.07 1.965-.25 2.612-1.175 4.204-1.476 2.54-3.58 3.868-5.867 3.708-1.328-.093-1.767-.3-2.67-1.257-.854-.903-1.086-1.42-1.102-2.45-.025-1.72 1.15-3.033 2.548-2.85 1.16.154 1.21-.22.123-.91-1.297-.82-3.63-.41-5.497.967-1.66 1.226-3.38 3.84-3.92 5.957-.476 1.866-.1 5.286.774 7.023 1.2 2.39 2.2 2.868 6.242 2.997 3.032.096 3.537.195 4.184.825.644.625.685.8.326 1.396-.34.563-.338.655.014.533.617-.215 1.01-1.642.738-2.667-.41-1.53-1.79-2.555-3.98-2.95-1.092-.2-2.368-.653-2.837-1.01-2.513-1.918-3.198-7.167-1.265-9.7.88-1.156 1.24-1.083 1.05.213-.204 1.38.543 2.79 2.078 3.925.92.68 1.605.89 3.148.96 2.486.112 3.935-.5 5.84-2.46 2.05-2.114 2.734-3.92 2.714-7.16-.01-1.456.087-2.65.214-2.654.397-.008 4.82 5.692 7.64 9.848 5.976 8.81 8.527 15.86 8.078 22.325-.203 2.91-.65 3.63-.988 1.59-.442-2.676-3.31-6.576-5.925-8.056-1.134-.642-1.88-.81-3.6-.805-2.34.005-3.72.533-5.247 2.002l-.842.812-.442-.75c-.282-.478-.453-1.793-.473-3.64-.037-3.37.644-5.356 2.516-7.335 1.484-1.568 2.723-1.875 3.972-.98l.938.672-.014-.924c-.03-2.063-2.873-2.824-4.866-1.304l-1.012.772.128-.974c.166-1.263-.388-1.06-1.456.534-1.24 1.852-1.768 3.833-1.903 7.155-.103 2.528.003 3.47.608 5.455.404 1.32.734 2.797.736 3.283.002.486-.014 1.716-.034 2.733-.06 3.065 1.295 5.366 3.82 6.487 3.72 1.65 7.543-.68 7.486-4.56-.027-1.82-.755-2.975-2.387-3.788-1.207-.603-3.23-.38-4.127.457-.6.56-.657.547-1.64-.408-1.003-.974-1.01-1-.472-1.85 1.135-1.788 5.146-2.76 7.168-1.735.48.243 1.417.988 2.08 1.656 3.21 3.23 3.457 7.607.62 10.93-2.286 2.675-4.654 3.282-8.278 2.12-2.612-.836-4.235-2.122-5.254-4.166-1.436-2.88-1.443-3.914-.044-6.735.343-.693-1.4-.086-2.24.778-.742.765-1.036.902-1.247.58-.15-.23-.28-.522-.283-.647-.004-.125-.723-.68-1.596-1.233-2.233-1.415-3.15-3.435-2.344-5.17.318-.682.312-.684-.16-.075-1.08 1.388-.68 3.647 1.302 7.37 3.392 6.372 8.68 10.272 14.246 10.51 2.255.098 2.712.015 4.277-.78 1.8-.915 3.59-2.754 4.618-4.75l.584-1.134.026 1.124c.06 2.418-2.597 6.84-5.113 8.506-1.47.975-1.83 1.067-4.666 1.193-2.59.117-3.385.024-5.067-.588zm3.408-8.52c-.92-.165-2.358-1.57-2.925-2.856-.45-1.022-.664-3.616-.3-3.622.695-.01 2.062 1.214 2.6 2.328.564 1.167.764 1.318 1.728 1.304 1.31-.02 1.99-.84 1.413-1.708-.204-.307-.677-.54-1.05-.522-.752.04-.9-.475-.312-1.08.408-.42 1.797-.54 2.65-.227.706.258 1.488 1.782 1.505 2.932.016 1.107-.94 2.468-2.215 3.152-.89.477-1.672.553-3.092.298zm-58.103-.882c-1.507-1.35-1.824-2.856-.918-4.353.722-1.194 1.94-1.647 3.085-1.147.958.42 1.093 1.334.162 1.105-.46-.113-.737.076-1.005.687-.31.71-.276.943.223 1.478.326.35.92.63 1.322.624.823-.012 2.042-1.41 2.028-2.323-.005-.33.19-.6.434-.605.243-.003.62-.226.835-.495.654-.81.956-.564.976.8.044 2.93-1.548 4.862-4.224 5.124-1.612.158-1.815.096-2.92-.894zm30.625-23.633c-.017-.75-.244-1.724-.503-2.162-.662-1.12-.618-1.644.243-2.848l.753-1.052.75 1.172c.674 1.056.708 1.274.34 2.18-.225.553-.463 1.693-.53 2.534-.16 2.027-1.007 2.17-1.053.177zm-1.688-7.927c-.695-3.27-2.797-6.86-5.647-9.64-3.01-2.934-5.472-4.207-7.464-3.858-1.06.187-1.252.133-1.25-.346.005-.893.722-2.007 1.738-2.698 1.842-1.254 3.2-.762 6.138 2.223 4.287 4.358 7.364 10.302 7.424 14.344.033 2.207-.467 2.195-.938-.024zm3.194.192c-.05-3.898 2.67-9.735 6.467-13.883 3.743-4.09 6.26-4.73 8.367-2.13.376.463.69 1.153.694 1.533.01.628-.157.693-1.837.707-2.58.023-4.51 1.085-7.442 4.095-2.83 2.907-4.778 6.31-5.33 9.316-.204 1.123-.49 2.042-.635 2.045-.144.003-.272-.756-.284-1.683zm-1.366-5.168c-.042-2.814-.654-6.043-2.65-13.975-1.925-7.653-1.672-11.796 1.03-16.892.6-1.13 1.258-2.684 1.46-3.45l.37-1.395.416 1.28c.228.703.945 2.374 1.593 3.712 2.52 5.21 2.86 8.795 1.392 14.732-1.28 5.178-2.322 10.367-2.816 14.024-.473 3.506-.762 4.22-.796 1.964zm-3.788-6.3c-.498-.73-1.755-2.337-2.792-3.573-2.306-2.748-3.254-4.513-3.53-6.572-.364-2.734.788-4.444 2.73-4.048 1.874.383 2.752 2.688 3.684 9.674.384 2.878.786 5.37.894 5.538.107.168.133.306.058.307-.076 0-.545-.596-1.044-1.325zm7.392.427c.068-.53.263-2.413.434-4.183.55-5.71 1.584-8.86 3.336-10.147 1.173-.862 1.697-.868 2.478-.03.484.52.627 1.144.642 2.804.024 2.713-.444 3.71-3.548 7.55-1.348 1.666-2.68 3.467-2.958 4l-.51.973zM71.79 91.7c-.918-.577-1.543-.585-2.914-.035-.486.195-.468.06.14-1.046.383-.7 1.185-1.844 1.78-2.545l1.082-1.275.02 1.46c.013.802.243 2.052.51 2.777.27.725.458 1.308.422 1.296-.037-.012-.505-.298-1.04-.634zm22.477-.82c.123-.69.305-1.97.404-2.844l.18-1.588.854 1.25c.47.69 1.103 1.718 1.41 2.288l.554 1.036-1.062.016c-.583.008-1.4.26-1.812.56l-.752.542zm-17.26-7.916c-.422-.342-1.04-.617-1.375-.612-.334.005-.608-.053-.61-.13-.002-.244 2.496-4.028 2.782-4.21.155-.1.184.383.066 1.087-.116.695-.13 1.993-.032 2.883.1.89.125 1.615.06 1.61-.068-.005-.468-.288-.89-.63zm11.925-2.123c.007-1.396.044-2.54.08-2.543.13-.005 2.72 3.78 2.724 3.977.002.108-.148.107-.332-.003-.184-.11-.82.096-1.41.457l-1.076.657z"/>
</svg>